<?xml version="1.0" standalone="no"?>
<!DOCTYPE svg PUBLIC "-//W3C//DTD SVG 20010904//EN"
 "http://www.w3.org/TR/2001/REC-SVG-20010904/DTD/svg10.dtd">
<svg version="1.0" xmlns="http://www.w3.org/2000/svg"
 width="700.000000pt" height="700.000000pt" viewBox="0 0 700.000000 700.000000"
 preserveAspectRatio="xMidYMid meet">
<metadata>
Created by potrace 1.14, written by Peter Selinger 2001-2017
</metadata>
<g transform="translate(0.000000,700.000000) scale(0.100000,-0.100000)"
fill="#000000" stroke="none">
<path d="M0 3500 l0 -3500 3500 0 3500 0 0 3500 0 3500 -3500 0 -3500 0 0
-3500z m4731 2089 c668 -374 1224 -687 1237 -695 l22 -14 0 -1388 0 -1388
-1236 -694 c-681 -381 -1242 -693 -1248 -693 -6 0 -564 311 -1241 690 l-1230
691 -3 1394 -2 1394 1232 692 c678 380 1238 691 1244 692 6 0 558 -306 1225
-681z"/>
<path d="M2405 5337 l-1090 -613 -3 -1226 c-2 -992 0 -1228 11 -1236 15 -12
128 -77 1317 -742 475 -267 868 -484 872 -482 5 1 499 277 1098 613 l1090 612
0 1231 0 1231 -1086 609 c-597 334 -1093 610 -1102 612 -10 2 -507 -272 -1107
-609z m2010 -271 l890 -463 2 -1099 2 -1099 -900 -478 -901 -477 -901 479
-902 479 -3 1095 -2 1094 897 467 c494 256 905 466 913 465 8 0 415 -208 905
-463z"/>
<path d="M3113 4913 l-143 -75 0 -350 c0 -328 1 -349 18 -345 9 3 77 20 150
37 l132 32 0 389 c0 214 -3 388 -7 388 -5 -1 -72 -35 -150 -76z"/>
<path d="M3750 3490 l0 -1492 33 20 c17 10 314 169 660 352 l627 332 0 349 0
348 -112 3 -113 3 -3 88 -3 87 116 0 115 0 0 358 0 358 -517 269 c-285 148
-582 302 -660 343 l-143 74 0 -1492z m898 598 l32 -20 0 -194 0 -194 -270 0
-270 0 0 336 0 335 238 -122 c130 -67 252 -130 270 -141z m30 -973 l2 -190
-152 -81 c-84 -45 -206 -110 -270 -144 l-118 -62 0 336 0 336 268 -2 267 -3 3
-190z"/>
<path d="M2595 4642 l-130 -67 -3 -277 c-2 -245 0 -278 13 -278 9 0 72 14 140
31 l125 31 0 314 c0 173 -3 314 -7 314 -5 -1 -66 -31 -138 -68z"/>
<path d="M2085 4377 l-140 -72 -3 -207 c-2 -156 1 -208 10 -208 6 0 71 14 145
32 l133 32 0 248 c0 136 -1 248 -2 248 -2 -1 -66 -33 -143 -73z"/>
<path d="M2582 3787 l-122 -31 2 -270 3 -270 130 -33 c72 -18 133 -33 138 -33
4 0 7 151 7 335 0 313 -1 335 -17 334 -10 -1 -73 -15 -141 -32z"/>
<path d="M2077 3663 l-138 -35 3 -141 3 -140 143 -37 142 -36 0 213 c0 117 -3
213 -7 212 -5 0 -70 -17 -146 -36z"/>
<path d="M1940 2888 l0 -203 139 -72 c77 -40 142 -73 145 -73 3 0 6 107 6 239
l0 239 -127 31 c-71 18 -136 34 -145 37 -17 5 -18 -9 -18 -198z"/>
<path d="M2460 2686 l0 -275 123 -65 c67 -36 130 -68 140 -71 16 -7 17 12 17
304 l0 310 -37 10 c-21 5 -76 19 -123 31 -47 12 -93 23 -102 26 -17 5 -18 -12
-18 -270z"/>
<path d="M2970 2486 l0 -345 88 -47 c48 -26 115 -62 150 -81 l62 -34 0 389 0
390 -145 36 c-79 20 -147 36 -150 36 -3 0 -5 -155 -5 -344z"/>
</g>
</svg>
