<svg width="12" height="16" viewBox="0 0 12 16" fill="none" xmlns="http://www.w3.org/2000/svg">
<path d="M7.5 16V11.5625L5.91667 10L5.25 13.3333L0 12.2708L0.291667 10.8125L4.0625 11.5625L5.14583 6.08333L3.5 6.79167V9H2V5.79167L5.85417 4.16667C5.97917 4.11111 6.10764 4.06944 6.23958 4.04167C6.37153 4.01389 6.50694 4 6.64583 4C7.02083 4 7.35764 4.08681 7.65625 4.26042C7.95486 4.43403 8.20139 4.6875 8.39583 5.02083L8.6875 5.5C9.10417 6.20833 9.57639 6.71875 10.1042 7.03125C10.6319 7.34375 11.2639 7.5 12 7.5V9C11.2083 9 10.4688 8.82639 9.78125 8.47917C9.09375 8.13194 8.50694 7.63889 8.02083 7L7.54167 9.5L9 10.9583V16H7.5ZM8 3.5C7.51389 3.5 7.10069 3.32986 6.76042 2.98958C6.42014 2.64931 6.25 2.23611 6.25 1.75C6.25 1.26389 6.42014 0.850694 6.76042 0.510417C7.10069 0.170139 7.51389 0 8 0C8.48611 0 8.89931 0.170139 9.23958 0.510417C9.57986 0.850694 9.75 1.26389 9.75 1.75C9.75 2.23611 9.57986 2.64931 9.23958 2.98958C8.89931 3.32986 8.48611 3.5 8 3.5Z" fill="#BABABA"/>
</svg>
